# xmcd
# 
# Track frame offsets:
#     150
#     14555
#     32425
#     44885
#     86425
#     102437
#     122495
#     142250
#     154382
#     189340
#     205727
#     222285
#     238645
#     254982
#     279825
# 
# Disc length: 4440
# 
# Revision: 2
# Processed by: cddbd v1.5.2PL0 Copyright (c) Steve Scherf et al.
# Submitted via: fre:ac v1.0.17
# 
DISCID=df11560f
DTITLE=Jethro Tull - Stormwatch (Remastered with Bonus Tracks)
DYEAR=1979
DGENRE=Progressive Rock
TTITLE0=North Sea Oil
TTITLE1=Orion
TTITLE2=Home
TTITLE3=Dark Ages
TTITLE4=Warm Sporran
TTITLE5=Something's on the Move
TTITLE6=Old Ghosts
TTITLE7=Dun Ringill
TTITLE8=Flying Dutchman
TTITLE9=Elegy
TTITLE10=A Stitch in Time (Bonus Track)
TTITLE11=Crossword (Bonus Track)
TTITLE12=Kelpie (Bonus Track)
TTITLE13=King Henry's Madrigal (Bonus Track)
TTITLE14=Copy Protection and Compressed Tracks
EXTD=
EXTT0=
EXTT1=
EXTT2=
EXTT3=
EXTT4=
EXTT5=
EXTT6=
EXTT7=
EXTT8=
EXTT9=
EXTT10=
EXTT11=
EXTT12=
EXTT13=
EXTT14=
PLAYORDER=
